HIERARCHY
ROOT Hips
{
	OFFSET 0.00000 0.00000 0.00000
	CHANNELS 6 Xposition Yposition Zposition Zrotation Yrotation Xrotation 
	JOINT LHipJoint
	{
		OFFSET 0 0 0
		CHANNELS 3 Zrotation Yrotation Xrotation
		JOINT LeftHip
		{
			OFFSET 1.65412 -1.54119 0.76744
			CHANNELS 3 Zrotation Yrotation Xrotation
			JOINT LeftKnee
			{
				OFFSET 2.19550 -6.03209 0.00000
				CHANNELS 3 Zrotation Yrotation Xrotation
				JOINT LeftAnkle
				{
					OFFSET 2.38814 -6.56138 0.00000
					CHANNELS 3 Zrotation Yrotation Xrotation
					JOINT LeftToe
					{
						OFFSET 0.17337 -0.47632 1.75875
						CHANNELS 3 Zrotation Yrotation Xrotation
						End Site
						{
							OFFSET 0.00000 -0.00000 0.92050
						}
					}
				}
			}
		}
	}
	JOINT RHipJoint
	{
		OFFSET 0 0 0
		CHANNELS 3 Zrotation Yrotation Xrotation
		JOINT RightHip
		{
			OFFSET -1.40291 -1.54119 0.76744
			CHANNELS 3 Zrotation Yrotation Xrotation
			JOINT RightKnee
			{
				OFFSET -2.22156 -6.10370 0.00000
				CHANNELS 3 Zrotation Yrotation Xrotation
				JOINT RightAnkle
				{
					OFFSET -2.46840 -6.78188 0.00000
					CHANNELS 3 Zrotation Yrotation Xrotation
					JOINT RightToe
					{
						OFFSET -0.15659 -0.43024 1.84117
						CHANNELS 3 Zrotation Yrotation Xrotation
						End Site
						{
							OFFSET -0.00000 -0.00000 0.95587
						}
					}
				}
			}
		}
	}
	JOINT lowerback
	{
		OFFSET 0 0 0
		CHANNELS 3 Zrotation Yrotation Xrotation
		JOINT Chest
		{
			OFFSET -0.01936 1.82120 -0.32061
			CHANNELS 3 Zrotation Yrotation Xrotation
			JOINT Chest2
			{
				OFFSET -0.00532 1.85767 -0.00071
				CHANNELS 3 Zrotation Yrotation Xrotation
				JOINT lowerneck
				{
					OFFSET 0 0 0
					CHANNELS 3 Zrotation Yrotation Xrotation
					JOINT Neck
					{
						OFFSET -0.10687 1.58194 0.10810
						CHANNELS 3 Zrotation Yrotation Xrotation
						JOINT Head
						{
							OFFSET 0.15346 1.57382 -0.25612
							CHANNELS 3 Zrotation Yrotation Xrotation
							End Site
							{
								OFFSET 0.05334 1.61251 -0.10513
							}
						}
					}
				}
				JOINT LeftCollar
				{
					OFFSET 0 0 0
					CHANNELS 3 Zrotation Yrotation Xrotation
					JOINT LeftShoulder
					{
						OFFSET 2.85758 0.89498 -0.01485
CHANNELS 3 Zrotation Xrotation Yrotation
						JOINT LeftElbow
						{
OFFSET 0 -4.791850 -0.000000
CHANNELS 3 Zrotation Xrotation Yrotation
							JOINT LeftWrist
							{
OFFSET 0 -2.655530 0.000000
CHANNELS 3 Zrotation Xrotation Yrotation
								JOINT lhand
								{
									OFFSET 0 0 0
CHANNELS 3 Zrotation Xrotation Yrotation
									JOINT LFingers
									{
OFFSET 0 -0.743900 0.000000
CHANNELS 3 Zrotation Xrotation Yrotation
										End Site
										{
OFFSET 0 -0.599750 0.000000
										}
									}
								}
								JOINT LThumb
								{
OFFSET 0 0.000000 0.000000
CHANNELS 3 Zrotation Xrotation Yrotation
									End Site
									{
OFFSET 0 -0.608910 0.608910
									}
								}
							}
						}
					}
				}
				JOINT RightCollar
				{
					OFFSET 0 0 0
					CHANNELS 3 Zrotation Yrotation Xrotation
					JOINT RightShoulder
					{
						OFFSET -2.93906 0.88031 0.02490
CHANNELS 3 Zrotation Xrotation Yrotation
						JOINT RightElbow
						{
OFFSET 0 -4.772540 -0.000000
CHANNELS 3 Zrotation Xrotation Yrotation
							JOINT RightWrist
							{
OFFSET 0 -2.759950 -0.000000
CHANNELS 3 Zrotation Xrotation Yrotation
								JOINT rhand
								{
									OFFSET 0 0 0
CHANNELS 3 Zrotation Xrotation Yrotation
									JOINT RFingers
									{
OFFSET 0 -0.701620 0.000000
CHANNELS 3 Zrotation Xrotation Yrotation
										End Site
										{
OFFSET 0 -0.565660 0.000000
										}
									}
								}
								JOINT RThumb
								{
OFFSET 0 0.000000 0.000000
CHANNELS 3 Zrotation Xrotation Yrotation
									End Site
									{
OFFSET 0 -0.574300 0.574300
									}
								}
							}
						}
					}
				}
			}
		}
	}
}
MOTION
Frames: 5
Frame Time: 0.008333333333333333
0.226845 16.200350 0.536577 -1.142138 6.845858 3.718925 0.000000 0.000000 0.000000 -16.070360 -14.530868 6.693498 0.031545 1.146219 3.151198 -0.071405 7.868798 -9.556174 0.203897 -2.907076 -8.020190 0.000000 0.000000 0.000000 19.108381 6.594905 4.157915 -0.181552 -2.744076 7.567092 0.365536 -16.375996 -19.268384 -0.036119 -1.224949 3.367981 0.078114 -0.022807 8.997539 -1.427694 -0.166334 -6.105011 -1.561472 -0.155665 -11.672054 -14.592063 -12.393899 -3.388366 10.149452 -16.394067 3.614878 4.400693 -8.106987 3.649192 0.000000 0.000000 0.000000 59.223219 11.085524 -106.204680 111.863151 -58.114514 78.814182 -3.395154 -10.619426 -5.101868 0.000000 0.000000 0.000000 -7.125000 0.000000 0.000000 -24.336985 34.163721 -7.006144 0.000000 0.000000 0.000000 -136.659532 -39.745563 -76.158768 -18.975550 -29.378751 -5.023593 -22.240958 -26.083467 4.132716 0.000000 0.000000 0.000000 7.125000 0.000000 0.000000 3.629014 34.426305 0.944580
0.250302 16.168311 0.153820 -0.674428 4.775809 -0.145748 0.000000 0.000000 0.000000 -17.325225 -11.721601 8.142024 0.065437 1.647095 4.531364 -0.080029 7.477951 -8.634681 0.290671 -3.466804 -9.581376 0.000000 0.000000 0.000000 18.639586 7.869767 4.860398 -0.417741 -4.148449 11.494663 0.300700 -15.857058 -19.183633 -0.016145 -0.818680 2.250030 -0.207482 -0.505745 13.604195 -0.669887 -0.777907 -2.292124 -0.433828 -0.383081 -10.150296 -12.928977 -9.539183 -5.417826 9.989302 -12.455756 5.063641 4.358715 -6.092503 3.826899 0.000000 0.000000 0.000000 50.601139 -3.660246 -84.478719 93.789704 -59.938293 63.281063 -12.539946 -25.311240 -17.060674 0.000000 0.000000 0.000000 -7.125000 0.000000 0.000000 -36.135851 43.808511 -1.237011 0.000000 0.000000 0.000000 -116.313863 -49.107152 -50.228183 -34.486519 -44.441993 -14.452630 -25.576227 -42.748983 4.260796 0.000000 0.000000 0.000000 7.125000 0.000000 0.000000 0.884372 34.700336 0.223660
0.282026 16.153147 -0.361788 -0.734017 2.092730 -1.560488 0.000000 0.000000 0.000000 -17.231370 -9.890758 4.394511 0.285219 3.434690 9.491427 -0.020684 6.559715 -8.813662 0.320732 -3.640161 -10.066455 0.000000 0.000000 0.000000 18.315993 9.506239 2.097262 -0.723988 -5.436486 15.157988 0.294095 -14.681790 -17.246196 -0.000095 -0.047057 0.129330 0.325816 -0.168637 16.870057 -0.147184 -0.172367 1.156553 -0.302707 -0.097008 -8.230104 -12.644159 -8.392502 -6.677259 12.026726 -10.767298 2.662598 5.079966 -5.155084 3.229068 0.000000 0.000000 0.000000 42.492563 -29.438633 -56.159610 49.847102 -52.923555 26.054798 -5.986423 -52.218350 -20.300820 0.000000 0.000000 0.000000 -7.125000 0.000000 0.000000 -32.497143 47.392984 2.136785 0.000000 0.000000 0.000000 -101.131768 -62.740104 -47.737793 -27.655774 -38.796055 -9.907784 -26.790948 -43.852459 6.147736 0.000000 0.000000 0.000000 7.125000 0.000000 0.000000 -0.050983 36.860131 -0.009916
0.293471 16.167730 -0.860726 -0.270600 1.168162 2.070396 0.000000 0.000000 0.000000 -16.670584 -11.688242 -3.693819 0.569616 4.833305 13.433677 -0.038008 6.701763 -8.549519 0.291315 -3.470563 -9.591658 0.000000 0.000000 0.000000 16.477798 12.163812 -6.133524 -1.158526 -6.833342 19.222522 0.280022 -13.920797 -16.105045 -0.000777 0.169235 -0.464939 0.021288 0.044302 18.729259 -0.032590 0.061274 2.209223 -0.062853 0.028848 -8.108954 -11.614281 -7.898972 -10.046650 12.669491 -9.660420 -0.200368 5.139603 -4.490938 2.776777 0.000000 0.000000 0.000000 37.589405 -56.647138 -20.073425 27.758926 -38.891556 9.972637 -0.409164 -59.539934 -19.655987 0.000000 0.000000 0.000000 -7.125000 0.000000 0.000000 -27.322053 47.595651 1.884308 0.000000 0.000000 0.000000 -93.652521 -70.184134 -56.345311 -20.711527 -31.489737 -5.898673 -25.926276 -42.179912 4.926301 0.000000 0.000000 0.000000 7.125000 0.000000 0.000000 0.621785 35.453564 0.145881
0.274281 16.121018 -1.216652 -0.115584 2.113518 5.051608 0.000000 0.000000 0.000000 -15.581815 -14.131009 -10.927057 0.999908 6.363289 17.842247 0.004071 5.674295 -8.213574 0.312742 -3.595265 -9.940553 0.000000 0.000000 0.000000 15.089796 13.252554 -13.141150 -1.671076 -8.144447 23.153640 0.220277 -13.468019 -16.222926 -0.000124 0.061089 -0.167790 -0.251864 -0.269761 21.089789 0.413225 -0.365723 2.367247 0.699821 -0.154240 -9.216866 -11.443768 -7.374504 -13.422181 12.901457 -8.597197 -0.789988 5.196416 -3.847995 3.014828 0.000000 0.000000 0.000000 59.980630 -72.611672 23.477344 18.366556 -28.623820 4.723594 0.149837 -54.073668 -18.121898 0.000000 0.000000 0.000000 -7.125000 0.000000 0.000000 -26.095534 46.298784 0.897138 0.000000 0.000000 0.000000 -96.991988 -69.401045 -72.222164 -15.683890 -25.090175 -3.510886 -22.857166 -39.796092 -0.818918 0.000000 0.000000 0.000000 7.125000 0.000000 0.000000 2.898871 29.085751 1.125379
